{"title":"Shin Chan Season 3 Part 2 High Quality --- DvD Rip --- MP4","uid":6726438,"size":1381687192,"categoryP":"video","categoryS":"tv_shows","magnet":"?xt=urn:btih:ca96373907ca4ca4c84278632be3d5365f0be954&amp;dn=Shin+Chan+Season+3+Part+2+High+Quality+---+DvD+Rip+---+MP4&amp;tr=udp%3A%2F%2Ftracker.openbittorrent.com%3A80&amp;tr=udp%3A%2F%2Fopen.demonii.com%3A1337&amp;tr=udp%3A%2F%2Ftracker.coppersurfer.tk%3A6969&amp;tr=udp%3A%2F%2Fexodus.desync.com%3A6969","seeders":1,"leechers":0,"uploader":"roiskopp","files":14,"time":1317974504,"description":"Seasons 3 Part 2 of Shin Chan\n\nANN Link to the Show &lt;a href=&quot;\nhttp://www.animenewsnetwork.com/encyclopedia/anime.php?id=540&quot; rel=&quot;nofollow&quot; target=&quot;_NEW&quot;&gt;\nhttp://www.animenewsnetwork.com/encyclopedia/anime.php?id=540&lt;/a&gt;\n\nPlot Summary: Shinnosuke &quot;Shin-chan&quot; Nohara is a little boy who seems to do everything he can to annoy his parents and teachers (and succeeds wildly), but only means the best. He just tries to have a good time and in doing so does things which will create the maximum vexation in others.\n\nAVC/AAC MP4's\nResolution: 720x408\nFrame rate: 23.976 fps\n\n\nIncludes:\nEpisodes 66 - 78\n\n\nEnjoy and Please Seed.\n\nCan't play the files? Download and use CCCP and stop living in the past. http://cccp-project.net/\n\nExample File Info:\n\nGeneral\nComplete name                    : Shin Chan Episode 73 - Tell the Stork to Give me a Fetus.mp4\nFormat                           : MPEG-4\nFormat profile                   : Base Media\nCodec ID                         : isom\nFile size                        : 95.4 MiB\nDuration                         : 25mn 5s\nOverall bit rate                 : 532 Kbps\n\nVideo\nID                               : 1\nFormat                           : AVC\nFormat/Info                      : Advanced Video Codec\nFormat profile                   : &lt;a class=&quot;__cf_email__&quot; href=&quot;/cdn-cgi/l/email-protection&quot; data-cfemail=&quot;9bd3f2fcf3dbd7aeb5aa&quot;&gt;[email&amp;#160;protected]&lt;/a&gt;&lt;script data-cfhash='f9e31' type=&quot;text/javascript&quot;&gt;\n/* &lt;![CDATA[ */!function(){try{var t=&quot;currentScript&quot;in document?document.currentScript:function(){for(var t=document.getElementsByTagName(&quot;script&quot;),e=t.length;e--;)if(t[e].getAttribute(&quot;data-cfhash&quot;))return t[e]}();if(t&amp;&amp;t.previousSibling){var e,r,n,i,c=t.previousSibling,a=c.getAttribute(&quot;data-cfemail&quot;);if(a){for(e=&quot;&quot;,r=parseInt(a.substr(0,2),16),n=2;a.length-n;n+=2)i=parseInt(a.substr(n,2),16)^r,e+=String.fromCharCode(i);e=document.createTextNode(e),c.parentNode.replaceChild(e,c)}t.parentNode.removeChild(t);}}catch(u){}}()/* ]]&gt; */&lt;/script&gt;\nFormat settings, CABAC           : Yes\nFormat settings, ReFrames        : 9 frames\nCodec ID                         : avc1\nCodec ID/Info                    : Advanced Video Coding\nDuration                         : 25mn 5s\nBit rate mode                    : Variable\nBit rate                         : 336 Kbps\nMaximum bit rate                 : 3 636 Kbps\nWidth                            : 720 pixels\nHeight                           : 408 pixels\nDisplay aspect ratio             : 16:9\nFrame rate mode                  : Constant\nFrame rate                       : 23.976 fps\nColor space                      : YUV\nChroma subsampling               : 4:2:0\nBit depth                        : 8 bits\nScan type                        : Progressive\nBits/(Pixel*Frame)               : 0.048\nStream size                      : 60.2 MiB (63%)\nTitle                            : Imported with GPAC 0.4.6-DEV (build 1)\nWriting library                  : x264 core 92 r1510 33d382a\nEncoding settings                : *snipped*\n\n\nAudio\nID                               : 2\nFormat                           : AAC\nFormat/Info                      : Advanced Audio Codec\nFormat profile                   : LC\nCodec ID                         : 40\nDuration                         : 25mn 5s\nBit rate mode                    : Variable\nBit rate                         : 192 Kbps\nMaximum bit rate                 : 223 Kbps\nChannel(s)                       : 2 channels\nChannel positions                : Front: L R\nSampling rate                    : 48.0 KHz\nCompression mode                 : Lossy\nStream size                      : 34.5 MiB (36%)\n","torrent":{"xt":"urn:btih:ca96373907ca4ca4c84278632be3d5365f0be954","amp;dn":"Shin+Chan+Season+3+Part+2+High+Quality+---+DvD+Rip+---+MP4","amp;tr":["udp%3A%2F%2Ftracker.openbittorrent.com%3A80","udp%3A%2F%2Fopen.demonii.com%3A1337","udp%3A%2F%2Ftracker.coppersurfer.tk%3A6969","udp%3A%2F%2Fexodus.desync.com%3A6969"],"infoHash":"ca96373907ca4ca4c84278632be3d5365f0be954","infoHashBuffer":{"type":"Buffer","data":[202,150,55,57,7,202,76,164,200,66,120,99,43,227,213,54,95,11,233,84]},"announce":[],"urlList":[]}}